<svg xmlns="http://www.w3.org/2000/svg" height="1024" preserveAspectRatio="none" style="display: block;" version="1.1" viewBox="0 0 2048 2048" width="1024">
<path d="M 0 0 L 2048 0 L 2048 2048 L 0 2048 L 0 0 z" fill="rgb(254,254,253)" transform="translate(0,0)"></path>
<path d="M 349.824 844.454 C 359.17 844.343 370.572 844.08 379.762 845.639 C 398.363 848.797 414.915 859.297 425.698 874.779 C 432.731 884.881 437.313 896.483 439.081 908.664 C 440.763 920.019 440.383 940.863 440.352 952.672 L 440.159 1019.7 L 440.048 1088.67 C 440.03 1100.9 440.502 1123.31 438.35 1134.51 C 434.543 1153.31 423.421 1169.82 407.434 1180.42 C 385.43 1194.82 358.745 1191.77 333.77 1192.05 C 324.737 1192.15 313.66 1193.45 304.879 1191.39 C 302.355 1190.8 300.66 1190.29 299.669 1187.7 C 295.497 1176.79 302.97 1094.2 304.247 1076.3 C 305.199 1062.93 308.059 1045.92 304.116 1032.97 C 301.65 1024.88 294.384 1019.16 290.351 1011.88 C 278.042 989.668 286.536 955.328 290.385 931.529 C 291.494 924.672 291.828 916.414 293.963 909.9 C 294.686 907.693 294.695 907.552 296.829 906.448 C 304.942 912.783 295.097 969.537 301.425 978.411 C 304.352 979.541 302.877 979.463 306.007 978.453 C 309.085 975.076 308.038 977.016 308.932 972.25 C 308.947 952.681 308.826 928.081 311.384 908.337 C 311.563 906.955 312.205 907.078 313.747 906.323 C 325.376 914.575 311.118 975.721 324.823 978.923 C 333.668 973.77 325.779 915.505 329.799 907.529 L 331.932 907.226 C 338.278 913.419 342.348 973.292 343.461 984.79 C 346.004 1011.06 323.171 1018.74 322.728 1043.54 C 322.023 1083.02 328.143 1121.98 329.306 1161.23 C 350.606 1160.71 378.53 1165.85 395.438 1150.79 C 414.409 1133.9 409.213 1100.64 409.173 1077.12 L 409.221 993.941 L 409.481 943.372 C 409.579 930.205 410.973 914.53 406.266 902.18 C 394.995 872.601 365.326 876.834 339.298 875.745 C 338.999 866.149 336.512 853.956 340.989 846.372 C 343.572 844.17 346.268 844.594 349.824 844.454 z" fill="rgb(99,64,35)" transform="translate(0,0)"></path>
<path d="M 1078.92 989.302 C 1111.48 987.716 1138.69 1011.09 1140.76 1043.79 C 1141.64 1059.88 1136.03 1075.65 1125.18 1087.57 C 1102.44 1112.52 1069.72 1110.84 1045.74 1088.71 L 1045.65 1124.5 C 1045.71 1135.05 1046.49 1150.27 1044.87 1160.55 C 1044 1166.11 1029.36 1165.83 1024.72 1163.36 C 1020.96 1158.74 1022.23 1131.41 1022.23 1124.02 L 1022.25 1065.17 L 1022.23 1021.94 C 1022.17 1011.11 1017.89 990.929 1034.17 991.183 C 1038.59 991.252 1041 993.137 1043.84 996.216 C 1045.36 999.759 1044.5 1003.04 1044.02 1006.91 C 1056.05 995.204 1062.42 991.977 1078.92 989.302 z" fill="rgb(99,64,35)" transform="translate(0,0)"></path>
<path d="M 1076.85 1011.8 C 1096.36 1008.97 1114.5 1022.43 1117.44 1041.92 C 1120.38 1061.41 1107.04 1079.62 1087.56 1082.68 C 1067.92 1085.77 1049.53 1072.28 1046.56 1052.63 C 1043.59 1032.97 1057.18 1014.66 1076.85 1011.8 z" fill="rgb(254,254,253)" transform="translate(0,0)"></path>
<path d="M 1485.95 990.21 C 1489.43 989.845 1492.94 989.663 1496.45 989.665 C 1510.7 989.793 1522.22 995.535 1532.04 1005.45 C 1533.05 1000.78 1534.44 996.638 1535.87 992.09 C 1542 991.839 1550.61 990.604 1555.47 994.014 C 1557.38 1002.18 1557.76 1092.88 1555.4 1099.28 C 1549.57 1103.96 1542.86 1104.66 1536.65 1099.75 C 1532.06 1096.12 1535.62 1092.09 1533.6 1089.4 L 1528.39 1093.99 C 1521.78 1098.41 1516.72 1101.36 1508.96 1103.51 C 1495.25 1107.26 1480.6 1105.3 1468.36 1098.07 C 1455.25 1090.34 1445.69 1077.77 1441.75 1063.06 C 1432.67 1029.1 1452.53 998.898 1485.95 990.21 z" fill="rgb(99,64,35)" transform="translate(0,0)"></path>
<path d="M 1493.42 1012.15 C 1512.75 1009.77 1530.37 1023.44 1532.88 1042.75 C 1535.4 1062.06 1521.86 1079.78 1502.56 1082.43 C 1483.07 1085.11 1465.13 1071.4 1462.6 1051.9 C 1460.06 1032.39 1473.89 1014.55 1493.42 1012.15 z" fill="rgb(254,254,253)" transform="translate(0,0)"></path>
<path d="M 596.34 935.329 C 631.701 935.547 693.361 925.416 707.021 969.312 C 717.169 1001.92 699.506 1026.87 668.478 1037.54 C 675.373 1046.03 709.007 1083.49 709.049 1092.05 C 709.066 1095.38 707.795 1098.24 705.422 1100.56 C 703.02 1102.91 699.66 1104.29 696.291 1104.17 C 690.977 1103.98 687.887 1099.91 684.7 1096.21 C 672.671 1082.27 661.911 1067.03 650.407 1052.63 C 644.699 1045.49 635.724 1037.45 631.737 1029.51 C 630.418 1026.88 631.003 1022.99 631.209 1020.16 C 641.087 1008.74 666.129 1019.85 678.383 1006.44 C 688.079 997.081 686.486 974.992 676.595 966.307 C 664.678 955.844 631.035 958.953 615.21 958.883 L 615.392 1087.18 C 615.399 1090.89 615.704 1098.02 612.627 1100.61 C 609.794 1102.98 605.856 1103.23 602.305 1102.96 C 598.907 1102.71 593.639 1101.36 591.875 1098.07 C 590.025 1094.63 589.361 950.577 591.037 938.662 C 593.161 935.99 592.7 936.771 596.34 935.329 z" fill="rgb(99,64,35)" transform="translate(0,0)"></path>
<path d="M 190.345 1024.53 C 217.727 1036.01 259.919 1062.66 274.688 1088.4 C 291.954 1118.48 289.217 1147.17 281.668 1179.04 C 271.416 1155.07 251.839 1117.37 231.586 1100 L 231.664 1101.49 C 248.776 1126.52 268.953 1164.76 274.305 1194.38 C 249.437 1185.24 229.202 1179.36 211.664 1158.18 C 185.009 1125.99 185.91 1064.37 190.345 1024.53 z" fill="rgb(154,195,73)" transform="translate(0,0)"></path>
<path d="M 1204.95 990.271 C 1240.77 987.346 1261.71 1008.89 1266.67 1043.19 C 1267.27 1047.3 1266.82 1051.17 1264.03 1054.4 C 1257.57 1057.67 1192.63 1055.91 1180.89 1055.99 C 1190.48 1085.92 1219.18 1092.15 1242.3 1071.69 L 1244.32 1070.64 C 1255.6 1071.45 1261.47 1080.08 1255.16 1088.71 C 1239.61 1109.99 1203.28 1108.02 1184.74 1095.91 C 1171.98 1087.45 1163.09 1074.27 1160.01 1059.27 C 1153.21 1026.17 1170.72 996.6 1204.95 990.271 z" fill="rgb(99,64,35)" transform="translate(0,0)"></path>
<path d="M 1209.87 1011.22 C 1228.32 1011.47 1236.9 1018.69 1243.31 1035.33 C 1234.6 1035.81 1226.23 1035.78 1217.5 1035.84 C 1205.8 1035.94 1193.26 1036.03 1181.56 1035.73 C 1188.07 1020.2 1192.69 1014.48 1209.87 1011.22 z" fill="rgb(254,254,253)" transform="translate(0,0)"></path>
<path d="M 772.563 989.4 C 776 989.268 781.087 989.777 784.483 990.534 C 798.25 993.687 810.22 1002.14 817.802 1014.05 C 822.389 1021.38 834.003 1050.8 820.995 1055.09 C 809.965 1058.73 750.323 1052.9 743.325 1057.04 C 743.852 1076.63 772.338 1087.7 788.71 1081.64 C 792.129 1080.37 801.646 1072.81 805.09 1070.33 L 807.734 1070.84 C 813.938 1074.88 816.134 1076.61 821.293 1081.82 C 811.692 1093.55 800.836 1102.23 785.166 1103.95 C 751.963 1107.59 722.223 1086.99 719.404 1052.64 C 717.916 1036.19 723.177 1019.84 733.98 1007.35 C 745.046 994.722 756.443 990.53 772.563 989.4 z" fill="rgb(99,64,35)" transform="translate(0,0)"></path>
<path d="M 771.009 1011.18 C 789.318 1010.23 797.75 1019.88 804.927 1035.16 C 796.249 1035.47 787.566 1035.61 778.883 1035.59 C 766.908 1035.61 754.934 1035.49 742.962 1035.24 C 750.292 1019.91 753.612 1014.81 771.009 1011.18 z" fill="rgb(254,254,253)" transform="translate(0,0)"></path>
<path d="M 1437.75 934.055 C 1449.71 934.129 1459.37 937.745 1452.79 951.829 C 1429.76 1001.17 1409.64 1052.19 1385.12 1100.75 C 1384.17 1102.64 1380.98 1102.22 1379.38 1102.21 C 1374.37 1098.45 1331.2 998.61 1326.54 987.754 C 1320.2 973.896 1292.01 926.596 1326.54 935.501 C 1332.04 936.918 1337.66 952.667 1339.9 957.973 C 1353.18 989.361 1368.01 1020.23 1380.56 1051.91 C 1399.52 1016.08 1413.3 976.002 1431.24 939.619 C 1432.48 937.104 1435.41 935.366 1437.75 934.055 z" fill="rgb(99,64,35)" transform="translate(0,0)"></path>
<path d="M 256.233 845.34 C 264.836 844.757 274.278 845.013 282.965 845.065 C 283.553 854.339 283.309 866.341 283.388 875.82 C 255.021 878.375 237.408 870.601 222.457 904.061 C 214.92 920.93 223.447 1016.86 218.53 1024.57 C 208.937 1019.51 199.168 1014.08 189.158 1009.98 L 189.124 950.355 C 189.119 935.755 188.233 915.581 191.475 901.764 C 193.939 891.41 198.628 881.716 205.217 873.358 C 218.539 856.199 234.934 847.991 256.233 845.34 z" fill="rgb(99,64,35)" transform="translate(0,0)"></path>
<path d="M 1590.96 992.268 C 1599.42 991.34 1609.92 988.815 1611.33 1000.23 C 1614.79 1028.33 1595.74 1091.95 1646.72 1080.62 C 1680.56 1073.1 1657.81 1011.37 1667.13 994.261 C 1671.91 990.287 1680.86 991.858 1687.29 992.211 C 1688.33 1002.6 1687.85 1021.22 1687.86 1032.25 C 1687.93 1044.06 1689.18 1090.09 1686.63 1098.97 C 1682.33 1104.25 1671.75 1103.18 1666.61 1099.4 C 1664.98 1096.53 1665.33 1095.02 1665.38 1091.69 L 1665.41 1090.43 C 1657.05 1097.07 1652.84 1101.22 1642.06 1103.5 C 1630.63 1106.23 1618.29 1105.05 1608.14 1098.34 C 1579.26 1079.13 1591.32 1039.9 1588.8 1010.81 C 1588.41 1006.19 1588.35 995.949 1590.96 992.268 z" fill="rgb(99,64,35)" transform="translate(0,0)"></path>
<path d="M 894.059 989.345 C 909.236 988.203 927.689 995.205 938.117 1006.31 C 941.937 1010.28 944.279 1020.16 938.043 1023.19 C 925.843 1029.1 915.775 1015.3 903.621 1012.97 C 871.214 1006.74 849.279 1044.8 869.886 1069.8 C 875.827 1076.9 884.404 1081.27 893.64 1081.91 C 908.703 1083.09 915.379 1080.28 926.396 1071.02 C 930.393 1070.04 940.107 1071.93 941.1 1077.1 C 943.062 1087.33 931.449 1096.14 923.39 1099.73 C 887.577 1115.67 845.654 1095.11 840.177 1054.99 C 838.133 1039.12 842.566 1023.09 852.475 1010.53 C 863.838 996.406 876.812 991.475 894.059 989.345 z" fill="rgb(99,64,35)" transform="translate(0,0)"></path>
<path d="M 1794.45 944.296 C 1799.34 944.052 1803.05 943.392 1807.25 945.78 C 1810.56 951.071 1809.21 983.719 1809.16 992.229 C 1814.15 992.426 1828.35 991.359 1833.24 994.377 C 1839.98 998.532 1838.73 1012.78 1830.33 1014.04 C 1825.66 1014.73 1815.31 1014.33 1809.42 1014.4 C 1809.32 1030.34 1809.31 1048.01 1809.29 1063.83 C 1809.27 1093.55 1827.99 1076.59 1837.48 1085.56 C 1840.09 1090.34 1839.22 1095.1 1837.95 1100.26 C 1826.08 1106.98 1806.63 1105.88 1796.75 1095.27 C 1782.16 1079.62 1787.88 1053.1 1786.84 1033.4 C 1786.52 1027.39 1786.92 1020.16 1786.96 1014.05 C 1774.18 1015.29 1762.54 1010.19 1772.88 995.388 C 1775.53 991.592 1782.51 992.347 1787.07 992.594 C 1787.23 980.469 1785.12 959.382 1788.48 947.735 C 1789.13 945.46 1792.29 944.953 1794.45 944.296 z" fill="rgb(99,64,35)" transform="translate(0,0)"></path>
<path d="M 1728.43 912.257 C 1730.82 912.187 1733.2 912.184 1735.59 912.249 C 1739.71 912.398 1741.21 912.771 1744.04 915.828 C 1745.44 928.492 1744.89 950.337 1744.91 963.616 L 1745.02 1047.19 C 1745.04 1063.17 1745.17 1081.32 1744.92 1097.5 C 1744.87 1100.21 1742.35 1100.81 1739.9 1102.12 C 1734 1102.2 1728.08 1103.07 1723.59 1099.28 C 1721.3 1090.26 1720.98 921.071 1722.9 916.436 C 1724.01 913.728 1726 913.356 1728.43 912.257 z" fill="rgb(99,64,35)" transform="translate(0,0)"></path>
<path d="M 513.852 871.237 C 515.374 871.685 518.238 872.289 518.944 873.867 C 520.304 876.91 520.315 1138.48 519.234 1165.17 C 519.122 1167.93 518.803 1169.93 517.694 1172.49 C 514.68 1172.45 514.764 1172.59 512.011 1171.48 C 509.542 1167.5 510.252 1123.02 510.218 1114.45 L 510.114 1004.61 L 510.065 918.542 C 510.058 905.077 509.922 891.05 510.198 877.573 C 510.262 874.457 511.608 873.878 513.852 871.237 z" fill="rgb(154,195,73)" transform="translate(0,0)"></path>
<path d="M 970.985 991.13 C 976.946 990.876 983.241 989.778 987.931 993.391 C 989.933 1002.84 989.887 1086.43 988.756 1098.89 C 986.413 1102.21 987.923 1100.92 983.741 1102.48 C 977.943 1102.57 972.755 1103.51 968.533 1099.56 C 964.984 1089.86 967.055 1029.62 966.255 1015.48 C 965.866 1008.62 965.565 996.517 970.985 991.13 z" fill="rgb(99,64,35)" transform="translate(0,0)"></path>
<path d="M 303.024 844.358 C 312.366 843.92 313.603 844.001 322.503 845.384 C 322.496 854.453 323.737 878.059 320.24 884.485 C 303.013 886.553 298.808 886.366 300.671 868.594 C 301.302 862.58 298.591 848.032 303.024 844.358 z" fill="rgb(99,64,35)" transform="translate(0,0)"></path>
<path d="M 975.075 936.023 C 998.979 936.127 994.893 962.232 981.665 966.306 L 979.868 966.908 L 976.982 966.338 C 959.485 963.051 957.242 944.867 975.075 936.023 z" fill="rgb(154,195,73)" transform="translate(0,0)"></path>
<metadata><recraft-signature>{"signed_by": "recraft", "signature_b64": "16rI7qZGHyuY1wgdB/JicPVGUJKsZKWsBjoVof7tZlZIaEHGP+c6oZ9SZqP80RwfdJUbeXirU+ylmiebMcqjAQ==", "signing_algo": "Ed25519", "generation_timestamp": 1784480744, "identifier": "9c058b8b-9a5d-4239-bd60-3dd2002e95d1"}</recraft-signature></metadata></svg>